# xmcd
#
# Track frame offsets: 
#        150
#        16150
#        27138
#        40925
#        53650
#        64488
#        81638
#        96725
#        106713
#        116350
#        128075
#        149350
#
# Disc length: 2249 seconds
#
# Revision: 7
# Processed by: cddbd v1.5.2PL0 Copyright (c) Steve Scherf et al.
# Submitted via: ExactAudioCopyFreeDBPlugin 1.0
#
DISCID=a208c70c
DTITLE=中島みゆき - 私の声が聞こえますか
DYEAR=1976
DGENRE=Pop-Folk
TTITLE0=あぶな坂
TTITLE1=あたしのやさしい人
TTITLE2=信じられない頃に
TTITLE3=ボギーボビーの赤いバラ
TTITLE4=海よ
TTITLE5=アザミ嬢のララバイ
TTITLE6=踊り明かそう
TTITLE7=ひとり遊び
TTITLE8=悲しいことはいつもある
TTITLE9=歌をあなたに
TTITLE10=渚便り
TTITLE11=時代
EXTD=YEAR: 1976 ID3G: 53
EXTT0=
EXTT1=
EXTT2=
EXTT3=
EXTT4=
EXTT5=
EXTT6=
EXTT7=
EXTT8=
EXTT9=
EXTT10=
EXTT11=
PLAYORDER=
